<svg id="Logos" xmlns="http://www.w3.org/2000/svg" width="178" height="52" viewBox="0 0 178 52"><defs><style>.cls-1{fill:#ff7c66;}.cls-2{fill:#fff;}</style></defs><circle class="cls-1" cx="173" cy="9.4" r="4"/><path class="cls-2" d="M56,18.7a16.1,16.1,0,1,1,.8,32.2H56a16.1,16.1,0,0,1-.8-32.2ZM56,45a10,10,0,0,0,10.1-9.6v-.5a10.1,10.1,0,1,0-20.2,0h0A9.78,9.78,0,0,0,55.5,45Z"/><path class="cls-2" d="M92.7,18.7A16.1,16.1,0,1,1,76.3,34.8,15.9,15.9,0,0,1,92.1,18.7Zm0,26.3a10,10,0,0,0,10.1-9.6v-.5a10.1,10.1,0,1,0-20.2,0h0A9.78,9.78,0,0,0,92.2,45Z"/><path class="cls-2" d="M169.8,49.7V19.4a.68.68,0,0,1,.7-.7h5a.68.68,0,0,1,.7.7h0V49.6a.68.68,0,0,1-.7.7h-5A.61.61,0,0,1,169.8,49.7Z"/><path class="cls-2" d="M151.1,18.7A13.1,13.1,0,0,0,140,24.5c-2-3.6-5.7-5.8-11-5.8a11.1,11.1,0,0,0-9.4,4.6V18.4a.68.68,0,0,0-.7-.7.6.6,0,0,0-.4.1l-5.2,3c-.1.1-.2.2-.2.3V49.7a.68.68,0,0,0,.7.7h5a.68.68,0,0,0,.7-.7V32.9c0-5.1,3.8-8.1,8.4-8.1s7.3,3,7.3,8.1V49.6a.68.68,0,0,0,.7.7h5a.68.68,0,0,0,.7-.7V32.5c.2-4.9,3.9-7.7,8.4-7.7s7.3,3,7.3,8.1V49.7a.68.68,0,0,0,.7.7h5a.68.68,0,0,0,.7-.7V31.5C163.9,24,159.4,18.7,151.1,18.7Z"/><path class="cls-2" d="M18.9,18.7A16.18,16.18,0,0,0,7.5,23.1V1.7A.68.68,0,0,0,6.8,1a.6.6,0,0,0-.4.1l-5.2,3c-.1.1-.2.2-.2.3V49.6a.68.68,0,0,0,.7.7h5a.68.68,0,0,0,.7-.7h0v-3A16.63,16.63,0,0,0,18.8,51a16.1,16.1,0,0,0,.8-32.2,1.7,1.7,0,0,0-.7-.1Zm0,26.3A10,10,0,0,1,8.8,35.4v-.5a10.1,10.1,0,0,1,20.2,0A9.78,9.78,0,0,1,19.4,45Z"/></svg>