<svg width="100" height="100" viewBox="0 0 100 100" fill="none" xmlns="http://www.w3.org/2000/svg">
<path d="M38.4427 76.0018C38.921 76.278 39.3087 76.0542 39.3087 75.5019L39.3072 36.3526C39.3072 35.8003 38.9194 35.1288 38.4412 34.8526L18.6319 23.4141C18.1536 23.1379 17.7658 23.3617 17.7659 23.914L17.7673 63.0633C17.7674 63.6155 18.1551 64.2871 18.6334 64.5633L38.4427 76.0018Z" fill="white"/>
<path d="M63.7835 25.2774C63.3052 25.0012 62.9175 25.225 62.9175 25.7773L62.919 64.9266C62.919 65.4789 63.3068 66.1505 63.785 66.4266L81.6245 76.7279C82.1028 77.004 82.4905 76.7802 82.4905 76.2279L82.489 37.0787C82.489 36.5264 82.1012 35.8548 81.623 35.5786L63.7835 25.2774Z" fill="white"/>
<path d="M28.4432 69.2276C27.9649 69.5037 27.9649 69.9514 28.4432 70.2275L46.227 80.495C46.7053 80.7712 47.4808 80.7712 47.9591 80.4951L81.8649 60.923C82.3432 60.6469 82.3432 60.1992 81.8649 59.9231L64.0811 49.6556C63.6028 49.3794 62.8273 49.3794 62.349 49.6555L28.4432 69.2276Z" fill="white"/>
<path d="M73.0038 31.6015C73.4822 31.3254 73.4822 30.8777 73.0039 30.6015L53.7786 19.5018C53.3003 19.2257 52.5248 19.2256 52.0465 19.5017L18.1407 39.0738C17.6624 39.3499 17.6624 39.7976 18.1407 40.0738L37.366 51.1735C37.8443 51.4496 38.6198 51.4497 39.0981 51.1736L73.0038 31.6015Z" fill="white"/>
<path d="M38.4427 76.0018C38.921 76.2779 39.3087 76.0541 39.3087 75.5018L39.3072 36.3525C39.3072 35.8003 38.9195 35.1287 38.4412 34.8525L18.6319 23.414C18.1536 23.1378 17.7659 23.3616 17.7659 23.9139L17.7674 63.0632C17.7674 63.6155 18.1551 64.287 18.6334 64.5632L38.4427 76.0018Z" fill="url(#paint0_linear_23019_25534)"/>
<path d="M63.7835 25.2773C63.3052 25.0011 62.9175 25.225 62.9175 25.7773L62.919 64.9265C62.919 65.4788 63.3067 66.1504 63.785 66.4265L81.6245 76.7278C82.1028 77.0039 82.4905 76.7801 82.4905 76.2278L82.489 37.0786C82.489 36.5263 82.1012 35.8547 81.623 35.5785L63.7835 25.2773Z" fill="url(#paint1_linear_23019_25534)"/>
<path d="M28.4432 69.2275C27.9649 69.5036 27.9649 69.9513 28.4432 70.2274L46.227 80.4949C46.7053 80.7711 47.4808 80.7711 47.9591 80.495L81.8648 60.9229C82.3432 60.6468 82.3432 60.1991 81.8649 59.923L64.081 49.6555C63.6028 49.3793 62.8273 49.3793 62.349 49.6554L28.4432 69.2275Z" fill="url(#paint2_linear_23019_25534)"/>
<path d="M73.0038 31.6014C73.4821 31.3253 73.4821 30.8776 73.0038 30.6014L53.7786 19.5017C53.3003 19.2256 52.5248 19.2255 52.0465 19.5016L18.1407 39.0737C17.6624 39.3498 17.6624 39.7975 18.1407 40.0737L37.366 51.1734C37.8443 51.4495 38.6198 51.4496 39.0981 51.1735L73.0038 31.6014Z" fill="url(#paint3_linear_23019_25534)"/>
<defs>
<linearGradient id="paint0_linear_23019_25534" x1="20.1704" y1="63.7538" x2="40.2725" y2="35.0669" gradientUnits="userSpaceOnUse">
<stop offset="0.113748" stop-color="#FF7C66"/>
<stop offset="0.941554" stop-color="#A03291"/>
</linearGradient>
<linearGradient id="paint1_linear_23019_25534" x1="59.4536" y1="28.4759" x2="91.9852" y2="35.9608" gradientUnits="userSpaceOnUse">
<stop offset="0.066155" stop-color="#4B4FE2"/>
<stop offset="0.821399" stop-color="#0EC38B"/>
</linearGradient>
<linearGradient id="paint2_linear_23019_25534" x1="29.7911" y1="68.4493" x2="79.6317" y2="58.7513" gradientUnits="userSpaceOnUse">
<stop offset="0.273973" stop-color="#0085F0"/>
<stop offset="0.805779" stop-color="#072B55"/>
</linearGradient>
<linearGradient id="paint3_linear_23019_25534" x1="18.8226" y1="39.743" x2="73.8699" y2="30.2129" gradientUnits="userSpaceOnUse">
<stop offset="0.373508" stop-color="#A03291"/>
<stop offset="0.763495" stop-color="#4B4FE2"/>
</linearGradient>
</defs>
</svg>
